# xmcd CD database file
#
# Track frame offsets:
#	150
#	27365
#	46962
#	59257
#	77895
#	102002
#	118812
#	138975
#	164802
#	192915
#
# Disc length: 2912 seconds
#
# Revision: 0
# Processed by: cddbd v1.5PL3 Copyright (c) Steve Scherf et al.
# Submitted via: CDex 1.51
#
DISCID=890b5e0a
DTITLE=Zane Massey and The Foundatiom - Soul of Grand Central
DYEAR=1994
DGENRE=Jazz
TTITLE0=Autumn Rap
TTITLE1=Autumn Leaves
TTITLE2=Sumertime
TTITLE3=Hip Hop Jazz
TTITLE4=Black and Yellow
TTITLE5=Don't Worry About It
TTITLE6=Tenorgetic
TTITLE7=Salsa En El Grand Central
TTITLE8=Spanish Love
TTITLE9=Journey Home
EXTD=YEAR: 1994
EXTT0=
EXTT1=
EXTT2=
EXTT3=
EXTT4=
EXTT5=
EXTT6=
EXTT7=
EXTT8=
EXTT9=
PLAYORDER=
